<svg xmlns="http://www.w3.org/2000/svg" viewBox="0 0 320 96" role="img" aria-label="ReBless logo">
  <defs>
    <linearGradient id="rbg" x1="0" y1="0" x2="1" y2="1">
      <stop offset="0%" stop-color="#10b981" />
      <stop offset="100%" stop-color="#06b6d4" />
    </linearGradient>
  </defs>
  <rect x="0" y="0" width="320" height="96" fill="none" />
  <g transform="translate(10,10)">
    <rect x="0" y="0" width="76" height="76" rx="20" fill="url(#rbg)" />
    <path d="M20 57V19h19c10 0 16 4 16 12 0 6-3 10-9 11l12 15H47L36 43h-5v14H20zm11-22h8c4 0 6-2 6-5 0-4-2-5-6-5h-8v10z" fill="#ffffff"/>
  </g>
  <g fill="#f8fafc" font-family="Outfit, Inter, system-ui, sans-serif" font-weight="700">
    <text x="98" y="50" font-size="34">ReBless</text>
    <text x="100" y="72" font-size="12" fill="#94a3b8" letter-spacing="1.8">CREDITOS Y ENROLAMIENTO</text>
  </g>
</svg>
